<mxfile host="app.diagrams.net" modified="2021-09-07T06:59:38.321Z" agent="5.0 (Macintosh; Intel Mac OS X 10_15_7) AppleWebKit/537.36 (KHTML, like Gecko) Chrome/92.0.4515.159 Safari/537.36" etag="WRADXfyPXyroh1z_sPFo" version="14.9.9" type="github">
  <diagram id="zZfuJ5XnWlHwVFn2IIGQ" name="Page-1">
    <mxGraphModel dx="946" dy="614" grid="1" gridSize="10" guides="1" tooltips="1" connect="1" arrows="1" fold="1" page="1" pageScale="1" pageWidth="827" pageHeight="1169" math="0" shadow="0">
      <root>
        <mxCell id="0" />
        <mxCell id="1" parent="0" />
        <mxCell id="MFem-PV79hMdWCKWJgmA-17" style="edgeStyle=none;rounded=0;orthogonalLoop=1;jettySize=auto;html=1;entryX=0.5;entryY=0;entryDx=0;entryDy=0;" edge="1" parent="1" source="MFem-PV79hMdWCKWJgmA-1" target="MFem-PV79hMdWCKWJgmA-2">
          <mxGeometry relative="1" as="geometry" />
        </mxCell>
        <mxCell id="MFem-PV79hMdWCKWJgmA-1" value="&lt;div style=&quot;background-color: rgb(255 , 255 , 255) ; font-family: &amp;#34;menlo&amp;#34; , &amp;#34;monaco&amp;#34; , &amp;#34;courier new&amp;#34; , monospace ; font-size: 14px ; line-height: 21px&quot;&gt;&lt;span style=&quot;color: #795e26&quot;&gt;PluginGlobalEnv&lt;/span&gt;&lt;/div&gt;" style="rounded=1;whiteSpace=wrap;html=1;" vertex="1" parent="1">
          <mxGeometry x="294" y="320" width="156" height="60" as="geometry" />
        </mxCell>
        <mxCell id="MFem-PV79hMdWCKWJgmA-18" style="edgeStyle=none;rounded=0;orthogonalLoop=1;jettySize=auto;html=1;" edge="1" parent="1" source="MFem-PV79hMdWCKWJgmA-2" target="MFem-PV79hMdWCKWJgmA-9">
          <mxGeometry relative="1" as="geometry" />
        </mxCell>
        <mxCell id="MFem-PV79hMdWCKWJgmA-19" style="edgeStyle=none;rounded=0;orthogonalLoop=1;jettySize=auto;html=1;entryX=0;entryY=0.75;entryDx=0;entryDy=0;" edge="1" parent="1" source="MFem-PV79hMdWCKWJgmA-2" target="MFem-PV79hMdWCKWJgmA-10">
          <mxGeometry relative="1" as="geometry" />
        </mxCell>
        <mxCell id="MFem-PV79hMdWCKWJgmA-2" value="&lt;div style=&quot;background-color: rgb(255 , 255 , 255) ; font-family: &amp;#34;menlo&amp;#34; , &amp;#34;monaco&amp;#34; , &amp;#34;courier new&amp;#34; , monospace ; font-size: 14px ; line-height: 21px&quot;&gt;&lt;span style=&quot;color: #795e26&quot;&gt;PluginGlobalDataRegister&lt;/span&gt;&lt;/div&gt;" style="rounded=1;whiteSpace=wrap;html=1;" vertex="1" parent="1">
          <mxGeometry x="244" y="440" width="256" height="60" as="geometry" />
        </mxCell>
        <mxCell id="MFem-PV79hMdWCKWJgmA-15" style="edgeStyle=none;rounded=0;orthogonalLoop=1;jettySize=auto;html=1;" edge="1" parent="1" source="MFem-PV79hMdWCKWJgmA-3" target="MFem-PV79hMdWCKWJgmA-1">
          <mxGeometry relative="1" as="geometry" />
        </mxCell>
        <mxCell id="MFem-PV79hMdWCKWJgmA-3" value="&lt;div style=&quot;background-color: rgb(255 , 255 , 255) ; font-family: &amp;#34;menlo&amp;#34; , &amp;#34;monaco&amp;#34; , &amp;#34;courier new&amp;#34; , monospace ; font-size: 14px ; line-height: 21px&quot;&gt;&lt;span style=&quot;color: #267f99&quot;&gt;ConfManager&lt;/span&gt;&lt;/div&gt;" style="rounded=1;whiteSpace=wrap;html=1;" vertex="1" parent="1">
          <mxGeometry x="130" y="190" width="120" height="60" as="geometry" />
        </mxCell>
        <mxCell id="MFem-PV79hMdWCKWJgmA-16" style="edgeStyle=none;rounded=0;orthogonalLoop=1;jettySize=auto;html=1;entryX=0.705;entryY=0.017;entryDx=0;entryDy=0;entryPerimeter=0;" edge="1" parent="1" source="MFem-PV79hMdWCKWJgmA-4" target="MFem-PV79hMdWCKWJgmA-1">
          <mxGeometry relative="1" as="geometry" />
        </mxCell>
        <mxCell id="MFem-PV79hMdWCKWJgmA-4" value="&lt;div style=&quot;background-color: rgb(255 , 255 , 255) ; font-family: &amp;#34;menlo&amp;#34; , &amp;#34;monaco&amp;#34; , &amp;#34;courier new&amp;#34; , monospace ; font-size: 14px ; line-height: 21px&quot;&gt;&lt;span style=&quot;color: #267f99&quot;&gt;PluginDataManager&lt;/span&gt;&lt;/div&gt;" style="rounded=1;whiteSpace=wrap;html=1;" vertex="1" parent="1">
          <mxGeometry x="450" y="190" width="180" height="60" as="geometry" />
        </mxCell>
        <mxCell id="MFem-PV79hMdWCKWJgmA-11" style="rounded=0;orthogonalLoop=1;jettySize=auto;html=1;" edge="1" parent="1" source="MFem-PV79hMdWCKWJgmA-5" target="MFem-PV79hMdWCKWJgmA-3">
          <mxGeometry relative="1" as="geometry" />
        </mxCell>
        <mxCell id="MFem-PV79hMdWCKWJgmA-5" value="&lt;div style=&quot;background-color: rgb(255 , 255 , 255) ; font-family: &amp;#34;menlo&amp;#34; , &amp;#34;monaco&amp;#34; , &amp;#34;courier new&amp;#34; , monospace ; font-size: 14px ; line-height: 21px&quot;&gt;&lt;span style=&quot;color: #795e26&quot;&gt;PluginConf1&lt;/span&gt;&lt;/div&gt;" style="rounded=1;whiteSpace=wrap;html=1;" vertex="1" parent="1">
          <mxGeometry x="50" y="80" width="120" height="60" as="geometry" />
        </mxCell>
        <mxCell id="MFem-PV79hMdWCKWJgmA-14" value="" style="edgeStyle=none;rounded=0;orthogonalLoop=1;jettySize=auto;html=1;" edge="1" parent="1" source="MFem-PV79hMdWCKWJgmA-6" target="MFem-PV79hMdWCKWJgmA-4">
          <mxGeometry relative="1" as="geometry" />
        </mxCell>
        <mxCell id="MFem-PV79hMdWCKWJgmA-6" value="&lt;div style=&quot;background-color: rgb(255 , 255 , 255) ; font-family: &amp;#34;menlo&amp;#34; , &amp;#34;monaco&amp;#34; , &amp;#34;courier new&amp;#34; , monospace ; font-size: 14px ; line-height: 21px&quot;&gt;&lt;span style=&quot;color: #795e26&quot;&gt;PluginData2&lt;/span&gt;&lt;/div&gt;" style="rounded=1;whiteSpace=wrap;html=1;" vertex="1" parent="1">
          <mxGeometry x="540" y="80" width="120" height="60" as="geometry" />
        </mxCell>
        <mxCell id="MFem-PV79hMdWCKWJgmA-12" value="" style="edgeStyle=none;rounded=0;orthogonalLoop=1;jettySize=auto;html=1;" edge="1" parent="1" source="MFem-PV79hMdWCKWJgmA-7" target="MFem-PV79hMdWCKWJgmA-3">
          <mxGeometry relative="1" as="geometry" />
        </mxCell>
        <mxCell id="MFem-PV79hMdWCKWJgmA-7" value="&lt;span style=&quot;color: rgb(121 , 94 , 38) ; font-family: &amp;#34;menlo&amp;#34; , &amp;#34;monaco&amp;#34; , &amp;#34;courier new&amp;#34; , monospace ; font-size: 14px ; background-color: rgb(255 , 255 , 255)&quot;&gt;PluginConf2&lt;/span&gt;" style="rounded=1;whiteSpace=wrap;html=1;" vertex="1" parent="1">
          <mxGeometry x="190" y="80" width="120" height="60" as="geometry" />
        </mxCell>
        <mxCell id="MFem-PV79hMdWCKWJgmA-13" value="" style="edgeStyle=none;rounded=0;orthogonalLoop=1;jettySize=auto;html=1;" edge="1" parent="1" source="MFem-PV79hMdWCKWJgmA-8" target="MFem-PV79hMdWCKWJgmA-4">
          <mxGeometry relative="1" as="geometry" />
        </mxCell>
        <mxCell id="MFem-PV79hMdWCKWJgmA-8" value="&lt;div style=&quot;background-color: rgb(255 , 255 , 255) ; font-family: &amp;#34;menlo&amp;#34; , &amp;#34;monaco&amp;#34; , &amp;#34;courier new&amp;#34; , monospace ; font-size: 14px ; line-height: 21px&quot;&gt;&lt;span style=&quot;color: #795e26&quot;&gt;PluginData1&lt;/span&gt;&lt;/div&gt;" style="rounded=1;whiteSpace=wrap;html=1;" vertex="1" parent="1">
          <mxGeometry x="400" y="80" width="120" height="60" as="geometry" />
        </mxCell>
        <mxCell id="MFem-PV79hMdWCKWJgmA-9" value="&lt;div style=&quot;background-color: rgb(255 , 255 , 255) ; font-family: &amp;#34;menlo&amp;#34; , &amp;#34;monaco&amp;#34; , &amp;#34;courier new&amp;#34; , monospace ; font-size: 14px ; line-height: 21px&quot;&gt;&lt;span style=&quot;color: #795e26&quot;&gt;Plugin1&lt;/span&gt;&lt;/div&gt;" style="rounded=1;whiteSpace=wrap;html=1;" vertex="1" parent="1">
          <mxGeometry x="590" y="370" width="120" height="60" as="geometry" />
        </mxCell>
        <mxCell id="MFem-PV79hMdWCKWJgmA-10" value="&lt;div style=&quot;background-color: rgb(255 , 255 , 255) ; font-family: &amp;#34;menlo&amp;#34; , &amp;#34;monaco&amp;#34; , &amp;#34;courier new&amp;#34; , monospace ; font-size: 14px ; line-height: 21px&quot;&gt;&lt;span style=&quot;color: #795e26&quot;&gt;Plugin2&lt;/span&gt;&lt;/div&gt;" style="rounded=1;whiteSpace=wrap;html=1;" vertex="1" parent="1">
          <mxGeometry x="590" y="480" width="120" height="60" as="geometry" />
        </mxCell>
      </root>
    </mxGraphModel>
  </diagram>
</mxfile>
